<?xml version="1.0" encoding="UTF-8" standalone="no"?><!DOCTYPE svg PUBLIC "-//W3C//DTD SVG 1.1//EN" "http://www.w3.org/Graphics/SVG/1.1/DTD/svg11.dtd"><svg width="100%" height="100%" viewBox="0 0 70 70" version="1.1" xmlns="http://www.w3.org/2000/svg" xmlns:xlink="http://www.w3.org/1999/xlink" xml:space="preserve" xmlns:serif="http://www.serif.com/" style="fill-rule:evenodd;clip-rule:evenodd;stroke-linejoin:round;stroke-miterlimit:1.41421;"><path d="M54.25,64.133l-3.231,-9.418c-1.26,0.588 -3.65,1.097 -5.412,1.152l-0.251,0c-5.123,0 -6.127,-3.768 -6.171,-6.52l0,-20.543l13.478,0l0,-9.99l-13.428,0l0,-16.814l-9.831,0c-0.162,0 -0.446,0.14 -0.484,0.492c-0.556,5.151 -3.02,14.179 -13.17,17.79l0,8.522l6.754,0l0,21.566c0,7.301 5.418,17.63 19.657,17.63l-0.03,-0.006l0.497,0c4.912,-0.082 10.404,-2.112 11.622,-3.861Z" style="fill:#fff;fill-rule:nonzero;"/></svg>