<?xml version="1.0" encoding="UTF-8" standalone="no"?><!DOCTYPE svg PUBLIC "-//W3C//DTD SVG 1.1//EN" "http://www.w3.org/Graphics/SVG/1.1/DTD/svg11.dtd"><svg width="100%" height="100%" viewBox="0 0 70 70" version="1.1" xmlns="http://www.w3.org/2000/svg" xmlns:xlink="http://www.w3.org/1999/xlink" xml:space="preserve" xmlns:serif="http://www.serif.com/" style="fill-rule:evenodd;clip-rule:evenodd;stroke-linejoin:round;stroke-miterlimit:1.41421;"><path d="M68.12,32.247c0,-4.971 -3.697,-9.013 -8.244,-9.013c-1.818,0 -3.545,0.649 -4.955,1.825c-4.6,-3.493 -10.626,-5.575 -17.036,-6.102l3.459,-8.869l10.061,2.569c0.322,3.402 2.927,6.07 6.122,6.07c3.408,0 6.182,-3.033 6.182,-6.76c0,-3.727 -2.774,-6.76 -6.182,-6.76c-2.16,0 -4.061,1.222 -5.165,3.065l-11.76,-3.006c-0.998,-0.248 -1.975,0.306 -2.37,1.311l-4.782,12.258c-6.921,0.262 -13.516,2.393 -18.495,6.107c-1.356,-1.1 -3.038,-1.708 -4.831,-1.708c-4.547,0 -8.244,4.042 -8.244,9.013c0,3.294 1.645,6.273 4.167,7.801c-0.033,0.396 -0.045,0.802 -0.045,1.212c0,12.425 12.943,22.533 28.854,22.533c15.906,0 28.853,-10.108 28.853,-22.533c0,-0.352 -0.012,-0.699 -0.032,-1.046c2.687,-1.496 4.443,-4.547 4.443,-7.967Zm-10.593,-22.533c1.133,0 2.061,1.009 2.061,2.253c0,1.244 -0.928,2.253 -2.061,2.253c-1.134,0 -2.061,-1.009 -2.061,-2.253c0,-1.244 0.927,-2.253 2.061,-2.253Zm-37.098,29.293c0,-2.483 1.851,-4.507 4.122,-4.507c2.271,0 4.122,2.024 4.122,4.507c0,2.487 -1.851,4.506 -4.122,4.506c-2.271,0 -4.122,-2.019 -4.122,-4.506Zm23.944,14.948c-2.844,2.249 -6.183,3.375 -9.517,3.375c-3.335,0 -6.674,-1.126 -9.518,-3.375c-0.923,-0.73 -1.129,-2.141 -0.462,-3.146c0.668,-1.005 1.958,-1.23 2.878,-0.504c4.249,3.357 9.954,3.366 14.204,0c0.919,-0.726 2.205,-0.51 2.877,0.504c0.668,1.01 0.458,2.416 -0.462,3.146Zm0.788,-10.442c-2.276,0 -4.122,-2.019 -4.122,-4.506c0,-2.483 1.846,-4.507 4.122,-4.507c2.275,0 4.122,2.024 4.122,4.507c0,2.487 -1.847,4.506 -4.122,4.506Z" style="fill:#fff;fill-rule:nonzero;"/></svg>