<?xml version="1.0" encoding="UTF-8" standalone="no"?><!DOCTYPE svg PUBLIC "-//W3C//DTD SVG 1.1//EN" "http://www.w3.org/Graphics/SVG/1.1/DTD/svg11.dtd"><svg width="100%" height="100%" viewBox="0 0 70 70" version="1.1" xmlns="http://www.w3.org/2000/svg" xmlns:xlink="http://www.w3.org/1999/xlink" xml:space="preserve" xmlns:serif="http://www.serif.com/" style="fill-rule:evenodd;clip-rule:evenodd;stroke-linejoin:round;stroke-miterlimit:1.41421;"><g><path d="M64.985,62l0,-0.002l0.015,0l0,-20.538c0,-10.048 -2.317,-17.787 -14.902,-17.787c-6.05,0 -10.11,3.098 -11.768,6.036l-0.175,0l0,-5.098l-11.932,0l0,37.387l12.425,0l0,-18.513c0,-4.874 0.99,-9.588 7.457,-9.588c6.373,0 6.468,5.563 6.468,9.901l0,18.202l12.412,0Z" style="fill:#fff;fill-rule:nonzero;"/><rect x="5.99" y="24.613" width="12.44" height="37.387" style="fill:#fff;fill-rule:nonzero;"/><path d="M12.205,6c-3.978,0 -7.205,3.012 -7.205,6.725c0,3.712 3.227,6.787 7.205,6.787c3.978,0 7.205,-3.075 7.205,-6.787c-0.003,-3.713 -3.23,-6.725 -7.205,-6.725Z" style="fill:#fff;fill-rule:nonzero;"/></g></svg>